<svg width="375" height="281" viewBox="0 0 375 281" fill="none" xmlns="http://www.w3.org/2000/svg">
<path d="M51.7129 28.056L226.793 81.6974L158.814 273.411L-16.2662 219.77L51.7129 28.056Z" fill="#DE8370"/>
<path d="M34.9161 6.42615L51.7129 28.0561L-16.2663 219.77L-25.8474 177.79L34.9161 6.42615Z" fill="#FFA779"/>
<path d="M34.9162 6.42615L200.199 57.799L226.793 81.6974L51.713 28.056L34.9162 6.42615Z" fill="#FFDBA7"/>
<path d="M186.451 113.193L386.23 74.3726L411.187 226.853L211.408 265.674L186.451 113.193Z" fill="#6C98E1"/>
<path d="M159.334 106.261L186.451 113.193L211.408 265.674L181.641 242.556L159.334 106.261Z" fill="#3E45B0"/>
<path d="M159.334 106.261L348.286 70.0869L386.23 74.3726L186.451 113.193L159.334 106.261Z" fill="#24297A"/>
<path d="M193.284 39.9021L336.168 13.6929L347.632 83.6965L204.748 109.906L193.284 39.9021Z" fill="#905AFA"/>
<path d="M174.384 37.7767L193.284 39.9022L204.748 109.906L184.631 100.35L174.384 37.7767Z" fill="#C592F9"/>
<path d="M174.384 37.7767L309.504 13.2406L336.168 13.6929L193.284 39.9021L174.384 37.7767Z" fill="#D8C5FD"/>
</svg>
