<svg width="66" height="48" viewBox="0 0 66 48" fill="none" xmlns="http://www.w3.org/2000/svg">
<ellipse cx="10" cy="26.5" rx="10" ry="3.5" fill="#0D0F2F"/>
<ellipse cx="33" cy="26.5" rx="10" ry="3.5" fill="#0D0F2F"/>
<ellipse cx="56" cy="26.5" rx="10" ry="3.5" fill="#0D0F2F"/>
<ellipse cx="33" cy="44.5" rx="10" ry="3.5" fill="#0D0F2F"/>
<ellipse cx="33" cy="9.5" rx="10" ry="3.5" fill="#0D0F2F"/>
<ellipse cx="33.0001" cy="8.5978" rx="7.93023" ry="1.49526" fill="#424CF1"/>
<rect x="25.0698" y="1.49536" width="15.8605" height="7.1025" fill="#424CF1"/>
<ellipse cx="33.0001" cy="1.49526" rx="7.93023" ry="1.49526" fill="#76A6FB"/>
<ellipse cx="33.0001" cy="43.2024" rx="7.93023" ry="1.49526" fill="#424CF1"/>
<rect x="25.0698" y="36.1" width="15.8605" height="7.1025" fill="#424CF1"/>
<ellipse cx="33.0001" cy="36.1" rx="7.93023" ry="1.49526" fill="#76A6FB"/>
<ellipse cx="9.93023" cy="25.9" rx="7.93023" ry="1.49526" fill="#424CF1"/>
<rect x="2" y="18.7976" width="15.8605" height="7.1025" fill="#424CF1"/>
<ellipse cx="9.93023" cy="18.7976" rx="7.93023" ry="1.49526" fill="#76A6FB"/>
<ellipse cx="33.0001" cy="25.9" rx="7.93023" ry="1.49526" fill="#E62322"/>
<rect x="25.0698" y="18.7976" width="15.8605" height="7.1025" fill="#E62322"/>
<ellipse cx="33.0001" cy="18.7976" rx="7.93023" ry="1.49526" fill="#E77170"/>
<ellipse cx="56.0698" cy="25.9" rx="7.93023" ry="1.49526" fill="#424CF1"/>
<rect x="48.1395" y="18.7976" width="15.8605" height="7.1025" fill="#424CF1"/>
<ellipse cx="56.0698" cy="18.7976" rx="7.93023" ry="1.49526" fill="#76A6FB"/>
</svg>
